<?xml version="1.0" encoding="UTF-8" standalone="no"?>
<svg
   xmlns:dc="http://purl.org/dc/elements/1.1/"
   xmlns:cc="http://creativecommons.org/ns#"
   xmlns:rdf="http://www.w3.org/1999/02/22-rdf-syntax-ns#"
   xmlns:svg="http://www.w3.org/2000/svg"
   xmlns="http://www.w3.org/2000/svg"
   height="128.29353"
   width="330.87399"
   version="1.0"
   viewBox="0 0 330.87398 128.29353"
   id="svg2">
  <title
     id="title12647">Bus Symbol</title>
  <defs
     id="defs3431" />
  <metadata
     id="metadata3429">
    <rdf:RDF>
      <cc:Work>
        <dc:format>image/svg+xml</dc:format>
        <dc:type
           rdf:resource="http://purl.org/dc/dcmitype/StillImage" />
        <cc:license
           rdf:resource="http://creativecommons.org/publicdomain/zero/1.0/" />
        <dc:publisher>
          <cc:Agent
             rdf:about="http://openclipart.org/">
            <dc:title></dc:title>
          </cc:Agent>
        </dc:publisher>
        <dc:title>Bus Symbol</dc:title>
        <dc:date>2015-05-07</dc:date>
        <dc:description>derived from https://openclipart.org/detail/18110/vehicles-silhouette
...because the wheels in that original image are horrible.</dc:description>
        <dc:source></dc:source>
        <dc:creator>
          <cc:Agent>
            <dc:title>ToBeFree</dc:title>
          </cc:Agent>
        </dc:creator>
        <dc:subject>
          <rdf:Bag>
            <rdf:li>bus</rdf:li>
            <rdf:li>symbol</rdf:li>
            <rdf:li>icon</rdf:li>
            <rdf:li>pictogram</rdf:li>
          </rdf:Bag>
        </dc:subject>
      </cc:Work>
      <cc:License
         rdf:about="http://creativecommons.org/publicdomain/zero/1.0/">
        <cc:permits
           rdf:resource="http://creativecommons.org/ns#Reproduction" />
        <cc:permits
           rdf:resource="http://creativecommons.org/ns#Distribution" />
        <cc:permits
           rdf:resource="http://creativecommons.org/ns#DerivativeWorks" />
      </cc:License>
    </rdf:RDF>
  </metadata>
  <g
     transform="translate(-16.520012,-1009)"
     id="g12642">
    <path
       id="path3549"
       style="fill:#010101"
       d="m 17.382,1113 c -0.73,-1.4 -1,-8.8 -0.796,-21.8 l 0.308,-19.7 8.25,-22.9 c 4.537,-12.5 8.25,-24 8.25,-25.5 0,-1.6 -0.816,-3.1 -2,-3.9 -1.518,-0.9 -2,-2.3 -2,-5.7 l 0,-4.5 148.46,0 c 112.96,0 149.08,0.3 151.07,1.2 1.44,0.6 3.24,2.4 3.99,3.8 0.75,1.5 4.32,13.1 7.93,25.9 l 6.55,23.1 0,22.1 c 0,24.1 -0.49,26.6 -5.71,28.8 -1.9,0.8 -9.67,1 -24.29,0.9 l -21.5,-0.3 -0.35,-2.5 c -0.19,-1.4 -1.59,-5.2 -3.1,-8.6 -2.98,-6.5 -8.69,-12.1 -15.62,-15.1 -4.99,-2.2 -17.52,-2.2 -22.43,-0.1 -8.74,3.7 -16.9,13.9 -18.51,23 l -0.66,3.8 -58.14,-0.3 -58.13,-0.2 -0.71,-4.2 c -1.55,-9 -8.44,-17.5 -17.72,-21.6 -5.437,-2.4 -15.646,-2.8 -21.39,-0.9 -9.087,3.2 -18.02,13.4 -19.548,22.3 l -0.742,4.4 -20.177,0.3 C 19.168,1115 18.453,1115 17.386,1113 Z m 57.14,-48.7 c 1.064,-1.3 1.372,-6.2 1.372,-22.1 0,-19 -0.129,-20.5 -1.941,-21.8 -1.474,-1.1 -5.586,-1.4 -17.095,-1.4 -13.22,0 -15.358,0.2 -16.754,1.7 -1.854,2.1 -14.71,36.7 -14.71,39.6 0,1.1 0.745,2.8 1.655,3.9 1.509,1.6 3.619,1.8 23.877,1.8 19.452,0 22.394,-0.2 23.596,-1.7 z m 51.048,0 c 1.03,-0.9 1.81,-3 1.8,-4.7 -0.04,-4.4 -10.5,-38.7 -12.12,-39.7 -0.75,-0.5 -7.7,-0.9 -15.451,-0.9 -18.787,0 -17.802,-1.1 -18.225,20.8 -0.347,18 0.075,22.3 2.431,24.6 2.366,2.4 38.925,2.3 41.565,-0.1 z m 51,0 c 1,-0.9 1.82,-2.5 1.82,-3.6 0,-3.5 -10.19,-38.2 -11.75,-40 -1.38,-1.5 -3.7,-1.7 -20.07,-1.7 -24.88,0 -24.83,-0.1 -19.12,19.8 4.93,17.2 7.11,23.6 8.73,25.4 1.35,1.6 3.65,1.8 20.04,1.8 15.83,0 18.78,-0.3 20.35,-1.7 z m 51.4,-0.8 c 1.54,-2.3 1.35,-3.4 -3.99,-22.2 -3.44,-12.2 -6.25,-20.3 -7.29,-21.1 -1.2,-0.9 -6.89,-1.2 -19.92,-1.2 -20.21,0 -21.38,0.3 -21.38,6.2 0,4 8.69,35.5 10.61,38.5 1.41,2.2 1.81,2.3 20.89,2.3 l 19.46,0 z m 50.22,1.3 c 0.66,-0.7 1.2,-2.7 1.2,-4.6 0,-5.1 -9.8,-38.5 -11.72,-40 -1.19,-0.9 -6.87,-1.2 -19.97,-1.2 -16.97,0 -18.45,0.1 -20.31,2 -1.1,1.1 -2,2.4 -2,3 0,2.4 10.33,37.7 11.62,39.7 1.4,2.2 1.81,2.3 20.71,2.3 13.66,0 19.62,-0.4 20.47,-1.2 z m 50.38,-0.5 c 2.68,-2.4 2.31,-5.6 -2.77,-23.6 -4.68,-16.5 -5.85,-19.6 -7.81,-21 -0.6,-0.4 -9.39,-0.7 -19.52,-0.7 -15.75,0 -18.68,0.2 -20.25,1.6 -1,0.9 -1.83,2.7 -1.83,3.9 0,3.1 9.9,36.6 11.61,39.2 1.41,2.2 1.84,2.3 20.09,2.3 15.95,0 18.91,-0.3 20.48,-1.7 z" />
    <ellipse
       style="color:#000000;clip-rule:nonzero;display:inline;overflow:visible;visibility:visible;opacity:1;isolation:auto;mix-blend-mode:normal;color-interpolation:sRGB;color-interpolation-filters:linearRGB;solid-color:#000000;solid-opacity:1;fill:#000000;fill-opacity:1;fill-rule:nonzero;stroke:#000000;stroke-width:1.08500004;stroke-linecap:round;stroke-linejoin:miter;stroke-miterlimit:4;stroke-dasharray:none;stroke-dashoffset:0;stroke-opacity:1;color-rendering:auto;image-rendering:auto;shape-rendering:auto;text-rendering:auto;enable-background:accumulate"
       id="path12623"
       cy="1115.9847"
       cx="88.674202"
       rx="20.293362"
       ry="20.766291" />
    <ellipse
       style="color:#000000;clip-rule:nonzero;display:inline;overflow:visible;visibility:visible;opacity:1;isolation:auto;mix-blend-mode:normal;color-interpolation:sRGB;color-interpolation-filters:linearRGB;solid-color:#000000;solid-opacity:1;fill:#000000;fill-opacity:1;fill-rule:nonzero;stroke:#000000;stroke-width:1.08500004;stroke-linecap:round;stroke-linejoin:miter;stroke-miterlimit:4;stroke-dasharray:none;stroke-dashoffset:0;stroke-opacity:1;color-rendering:auto;image-rendering:auto;shape-rendering:auto;text-rendering:auto;enable-background:accumulate"
       id="path12623-4"
       cy="1115.9707"
       cx="265.93738"
       rx="20.293362"
       ry="20.766291" />
  </g>
</svg>
