<?xml version="1.0" encoding="utf-8"?>

<!DOCTYPE svg PUBLIC "-//W3C//DTD SVG 1.1//EN" "http://www.w3.org/Graphics/SVG/1.1/DTD/svg11.dtd">
<svg version="1.1" id="Layer_1" xmlns="http://www.w3.org/2000/svg" xmlns:xlink="http://www.w3.org/1999/xlink" x="0px" y="0px"
	 viewBox="0 0 2324.261 1621.609" enable-background="new 0 0 2324.261 1621.609" xml:space="preserve">
<g>
	<path d="M1725.016,148.457c27.514-77.013,103.961-130.369,184.346-137.653c0,45.992-0.108,92.011,0.027,138.003
		c27.19,0.027,54.381,0.027,81.572-0.027c0.108,12.84,0.108,25.68,0.054,38.52c-124.867,0.216-249.733-0.054-374.599,0.135
		c0.027,26.678,0.135,53.356-0.054,80.034c124.813,0.378,249.625,0.027,374.438,0.189c47.575,0.707,92.624,35.26,99.51,92.227
		c-29.025-11.869-60.127-18.721-91.553-18.424c-517.998,0.027-1035.995-0.054-1553.993,0.054
		c-31.264-0.054-61.53,10.763-87.641,27.514c5.519-53.218,51.531-101.523,114.778-101.425
		c133.067,0.027,266.107,0.081,399.147-0.027c-0.027-26.732,0.135-53.464-0.081-80.223c-92.74,0-185.452,0.108-278.164-0.054
		c-0.135-12.84-0.135-25.68,0-38.52C638.797,148.791,1640.002,148.99,1725.016,148.457 M1766.854,148.7
		c34.42,0.27,68.84,0.054,103.26,0.108c0.189-29.888,0.297-59.776-0.054-89.664C1825.767,74.061,1786.869,106.08,1766.854,148.7
		 M909.594,189.944c0.081,25.842,0.135,51.711-0.027,77.553c222.758,0.297,445.489,0.108,668.247,0.108
		c-0.027-25.923,0.108-51.846-0.081-77.741C1355.029,189.918,1132.325,189.729,909.594,189.944z"/>
	<path d="M319.277,441.377c27.811-40.705,76.285-66.574,125.703-66.088c519.697,0.027,1039.394-0.027,1559.091,0.027
		c77.472,0,152.165,44.374,191.44,110.786c-35.93,0.081-71.834-0.027-107.764,0.054c-0.054,12.813-0.054,25.626,0.027,38.466
		c42.027,0.27,84.053,0.027,126.08,0.108c3.426,10.062,6.366,20.312,8.848,30.67c-35.958,0.108-71.942-0.189-107.899,0.135
		c-0.054,12.813-0.054,25.626,0,38.439c37.549,0.162,75.098-0.054,112.647,0.081c0.081,10.089,0.081,20.177,0.216,30.266
		c-30.536,0.243-61.071,0.081-91.58,0.054c-0.351,13.029-0.351,26.085,0,39.113c30.509-0.054,61.044-0.216,91.58,0.054
		c-0.243,42.351-0.162,84.674-0.054,127.024c-36.042-1.271-79.446,22.882-80.844,80.844c-10.587-0.007-1482.59-0.619-1526.479,0.459
		c-257.66,13.086-465.079,217.976-488.541,472.734c12.705-0.971,25.464-0.647,38.223-0.755
		c19.07-171.822,122.388-312.411,264.003-383.528c114.521-57.617,208.339-50.178,272.635-50.524c50.362,0,100.697-0.027,151.059,0
		c0,177.98,0,355.96,0,533.94c-17.992,0.054-36.011-0.108-54.004,0.108c-7.067-9.9-13.838-20.042-20.636-30.104
		c-13.736,101.026-88.789,175.02-178.924,192.411c-113.145,22.687-236.98-44.568-264.893-184.292
		c-5.611,6.986-9.144,15.942-16.131,21.607c-14.054,0.809-28.135-0.027-42.216,0.351c-22.884,25.947-37.387,23.627-65.198,23.792
		c-25.141-0.297-50.281,0.459-75.368-0.324c-25.383-1.564-47.584-22.74-50.524-47.961c-1.214-14.351-1.726-29.645,4.505-43.025
		c6.42-14.782,19.88-25.275,34.798-30.589c0.486-139.999,0.054-279.972,0.216-419.971c0.566-34.42,10.736-67.896,24.898-99.025
		c46.235-110.3,92.443-220.627,138.651-330.954C300.745,477.253,307.462,457.912,319.277,441.377 M396.074,547.766
		c-35.31,89.071-70.89,178.034-105.876,267.213c31.183,0.27,62.366,0.027,93.549,0.135c-6.285-24.682,1.457-53.033,22.875-67.977
		c22.578-17.453,52.493-10.223,78.793-11.896c0.27,26.57-0.054,53.167,0.162,79.765c117.583,0.108,235.167,0.216,352.75-0.054
		c-0.027-109.572-0.108-219.171,0.027-328.742c-117.691-0.189-235.409-0.027-353.128-0.081
		C446.706,486.479,410.047,511.889,396.074,547.766 M917.093,486.155c0.027,109.626-0.108,219.251,0.054,328.85
		c182.215,0.054,364.43,0.297,546.645-0.108c-0.108-109.518-0.189-219.063,0.027-328.607
		C1281.577,485.912,1099.335,486.182,917.093,486.155 M1542.855,486.155c-0.054,109.653-0.108,219.305,0,328.931
		c183.132-0.108,366.237,0.216,549.342-0.162c-72.562-108.493-146.446-216.122-219.332-324.399c-1.645-3.48-5.233-4.829-8.875-4.397
		C1756.954,486.128,1649.891,486.101,1542.855,486.155 M426.852,780.963c-9.576,9.01-7.958,26.166,2.886,33.476
		c5.665,1.025,11.437,0.62,17.156,0.647c0-13.649,0.027-27.299,0-40.948C439.773,774.543,431.897,775.19,426.852,780.963
		 M637.823,973.213c-0.108,12.867,0,25.761-0.189,38.628c40.166,0.512,80.358,0.135,120.524,0.216
		c0.162-13.029,0.405-26.085-0.486-39.06C717.722,973.455,677.772,973.051,637.823,973.213 M462.19,1261.493
		c-12.085,3.318-22.416,11.545-29.241,21.957c-56.296,83.197-56.281,80.902-56.566,88.046
		c-11.584,134.843,124.437,237.298,251.244,187.367c73.612-28.691,122.377-102.402,117.475-182.458
		c-2.269-26.604,5.276-10.878-50.632-93.279c-9.144-13.865-24.925-23.495-41.73-23.441c-55.784-0.27-111.541,0.054-167.298-0.162
		C477.673,1259.578,469.742,1259.389,462.19,1261.493 M141.243,1383.311c-8.065,1.241-13.433,9.226-12.975,17.156
		c0,7.823-1.43,17.318,4.855,23.306c6.015,6.231,15.43,4.37,23.198,4.802c27.757-0.728,55.649,1.052,83.298-0.863
		c13.137-3.399,12.381-19.152,11.464-29.861c-0.027-9.738-10.143-15.969-19.152-15.133
		C201.721,1383.095,171.401,1381.881,141.243,1383.311z"/>
	<path d="M2215.635,830.354c12.112-1.834,24.412-0.566,36.605-0.917c12.57,0.297,26.247-1.78,37.63,4.963
		c12.274,6.69,19.368,20.771,18.882,34.582c-0.054,98.107,0,196.242,0,294.349c0.54,15.915-9.792,31.722-25.059,36.74
		c-12.867,3.507-26.382,1.457-39.518,1.996c-11.329-0.324-23.036,1.214-33.988-2.32c-14.836-5.368-24.871-20.825-24.008-36.551
		c0.054-98.917-0.108-197.833,0.081-296.75C2185.881,849.452,2198.91,833.402,2215.635,830.354z"/>
	<path d="M15.594,936.473c-0.728-13.595,10.844-26.678,24.574-26.84c17.129-0.378,34.285,0,51.414-0.054c0,54.867,0,109.734,0,164.6
		c-17.102-0.189-34.204,0.351-51.279-0.135c-13.595-0.512-25.356-13.029-24.682-26.705
		C15.432,1010.384,15.459,973.428,15.594,936.473z"/>
	<path d="M896.268,909.849c416.95-0.162,833.9,0.027,1250.85-0.081c0.46,266.88-4.142,270.194,10.844,293.81
		c13.973,24.466,41.919,38.061,69.649,37.927c0.027,34.744-0.378,69.487,0.189,104.231c19.26,6.825,35.607,23.333,38.547,44.077
		c2.104,18.073,2.212,38.223-8.875,53.653c-10.52,15.726-29.403,24.709-48.177,24.142c-30.59-0.216-61.179,0.378-91.741-0.297
		c-16.832-0.62-30.832-10.925-41.703-22.902c-27.299-1.915-54.84,0.324-82.192-0.971c-7.07-4.746-33.364-41.954-54.948-66.169
		c1.38,99.834-53.876,175.966-127.132,210.997c-152.199,74.154-330.636-44.206-320.407-215.799
		c-62.216,60.305-64.222,72.873-74.963,71.294c-173.313-0.108-346.627,0.108-519.94-0.108
		C896.403,1265.701,896.43,1087.775,896.268,909.849 M941.182,973.024c-0.863,12.975-0.62,26.004-0.432,39.033
		c40.058,0.081,80.142,0.027,120.2,0.027c0-12.462,0.62-24.925-0.108-37.333C1057.402,971.491,1059.976,974.092,941.182,973.024
		 M1162.915,973.051c-0.054,12.975-0.054,25.95-0.054,38.925c307.54,0.216,615.08,0.108,922.62,0.081
		c0.189-13.029,0.432-26.058-0.432-39.06C1777.671,973.347,1470.293,973.267,1162.915,973.051 M1532.928,1353.585
		c-15.609,76.773,24.273,162.051,100.643,199.101c131.49,65.345,286.294-45.563,263.76-194.381
		c-0.418-7.653-14.188-3.562-73.56-5.071c4.127,16.374,6.474,33.557,3.426,50.362c-5.044,35.337-28.027,67.464-59.695,83.865
		c-60.104,31.96-135.423,3.227-159.34-60.343c-9.387-23.441-8.794-49.499-3.21-73.803
		C1580.944,1353.531,1556.936,1353.207,1532.928,1353.585 M1646.897,1353.585c-26.751,60.834,24.953,115.754,78.227,107.252
		c39.562-5.159,80.611-47.83,57.51-106.955c-11.977-0.701-23.981-0.647-35.958-0.27c6.879,9.873,13.622,20.905,12.813,33.476
		c0.567,22.578-18.775,43.187-41.271,44.374c-33.245,3.676-68.6-36.55-34.986-78.227
		C1671.12,1353.423,1659.009,1353.315,1646.897,1353.585 M1708.184,1368.61c-14.62,4.586-17.129,27.029-3.426,34.258
		c11.653,8.254,29.052-1.915,29.025-15.78C1734.349,1374.193,1720.242,1364.186,1708.184,1368.61 M2118.525,1383.257
		c-13.11,1.942-14.782,17.21-13.379,27.865c-0.432,9.522,7.769,18.154,17.507,17.264c30.589-0.027,61.233,0.594,91.795-0.297
		c13.487-1.376,15.214-16.94,13.784-27.649c1.079-10.52-8.956-18.802-19.017-17.723
		C2179.003,1383.041,2148.683,1381.962,2118.525,1383.257z"/>
	<path d="M537.638,1275.088c65.246-12.308,118.319,28.895,132.635,80.79c17.982,62.827-22.045,129.287-86.805,142.346
		c-73.612,15.69-142.26-45.577-136.331-119.256C449.457,1329.172,488.787,1284.421,537.638,1275.088 M545.838,1313.176
		c-27.568,5.368-51.009,27.46-57.78,54.732c-15.428,54.62,38.672,108.777,95.302,90.123c35.121-10.574,58.724-49.445,50.848-85.483
		C627.599,1332.949,585.087,1304.005,545.838,1313.176z"/>
	<path d="M553.796,1342.067c25.302-4.667,51.279,16.536,51.765,42.297c2.104,25.707-21.607,49.445-47.368,47.179
		c-25.815-0.432-46.855-26.732-42.081-52.007C518.945,1360.652,534.86,1344.818,553.796,1342.067 M553.661,1368.906
		c-14.324,4.828-16.158,26.705-2.94,33.961c11.707,8.362,29.268-1.996,29.133-15.942
		C580.231,1373.951,565.746,1363.808,553.661,1368.906z"/>
</g>
</svg>
